<?xml version="1.0" standalone="no"?>
<!DOCTYPE svg PUBLIC "-//W3C//DTD SVG 20010904//EN"
 "http://www.w3.org/TR/2001/REC-SVG-20010904/DTD/svg10.dtd">
<svg version="1.0" xmlns="http://www.w3.org/2000/svg"
 width="1024.000000pt" height="1024.000000pt" viewBox="0 0 1024.000000 1024.000000"
 preserveAspectRatio="xMidYMid meet">

<g transform="translate(0.000000,1024.000000) scale(0.100000,-0.100000)"
fill="#000000" stroke="none">
<path d="M1576 7554 l-217 -206 4 -286 c3 -158 5 -291 7 -297 1 -5 -3 -116
-10 -245 -15 -280 -8 -728 15 -939 55 -501 187 -988 378 -1391 l46 -95 0 1833
c1 1007 -1 1832 -2 1832 -2 0 -101 -93 -221 -206z"/>
<path d="M1833 5888 l2 -1863 32 -58 c17 -32 35 -57 39 -57 4 0 6 92 5 205 -2
170 0 205 11 205 8 0 69 -22 135 -49 437 -178 1053 -324 1648 -390 297 -33
415 -41 755 -51 179 -5 326 -9 328 -10 1 0 2 -184 2 -409 0 -305 -3 -412 -12
-417 -6 -4 -244 -7 -527 -7 -639 0 -1081 28 -1490 94 -101 16 -185 28 -188 26
-2 -2 27 -29 64 -59 130 -105 111 -98 351 -124 389 -42 697 -58 1137 -58 226
0 490 3 588 8 l177 8 0 1783 0 1783 -82 11 c-353 50 -925 199 -1298 338 -631
235 -1144 526 -1667 945 -9 7 -11 -411 -10 -1854z m182 1606 c267 -197 488
-335 769 -479 574 -296 1225 -509 1906 -625 36 -6 73 -13 83 -16 16 -5 17 -33
17 -395 l0 -389 -45 0 c-119 0 -621 86 -878 151 -547 137 -877 253 -1282 450
-218 106 -396 205 -545 303 l-125 82 -4 492 c-2 284 1 492 6 492 5 0 49 -30
98 -66z m32 -1108 c657 -428 1603 -749 2538 -860 72 -9 147 -19 168 -22 l37
-6 0 -370 0 -370 -97 7 c-711 47 -1270 153 -1877 356 -260 87 -682 268 -838
360 l-57 34 -6 478 c-3 262 -4 477 -1 477 3 0 63 -38 133 -84z m33 -1055 c472
-240 988 -411 1590 -525 102 -19 214 -40 250 -45 144 -23 506 -61 681 -72
l186 -12 8 -373 c4 -205 4 -378 -1 -385 -5 -9 -63 -11 -248 -6 -508 14 -910
54 -1346 133 -452 83 -999 246 -1242 370 l-38 19 -6 488 c-4 269 -3 487 2 487
5 0 78 -36 164 -79z"/>
<path d="M1942 7342 c3 -95 7 -174 10 -177 3 -3 21 6 41 20 l37 24 0 -339 c0
-220 4 -340 10 -340 6 0 10 120 10 340 0 187 3 340 6 340 3 0 33 -14 65 -31
l59 -32 0 -353 c0 -221 4 -355 10 -359 6 -4 11 100 12 294 l3 300 43 -19 c39
-18 42 -22 42 -60 0 -22 -2 -40 -4 -40 -3 0 -21 9 -40 21 -51 30 -45 15 6 -18
48 -29 38 -44 -12 -18 -18 9 -29 12 -25 6 3 -6 22 -18 41 -26 l34 -14 2 -242
c2 -161 7 -244 14 -246 7 -2 9 79 6 272 l-5 275 22 0 c11 0 21 -1 21 -3 0 -54
99 -609 111 -622 15 -15 11 21 -31 255 -22 123 -39 224 -37 225 3 3 87 14 87
12 0 -1 20 -123 45 -270 24 -148 43 -273 42 -279 -1 -6 4 -13 11 -15 18 -7 15
24 -18 201 -17 87 -30 164 -30 171 0 10 138 85 156 85 2 0 4 -115 4 -255 0
-163 4 -255 10 -255 9 0 16 335 10 478 -2 42 0 43 22 37 41 -13 79 -36 85 -51
9 -25 -4 -27 -48 -10 -23 9 -44 15 -46 12 -5 -5 62 -36 77 -36 4 0 10 -7 14
-15 7 -19 -2 -19 -49 1 -20 8 -40 13 -43 10 -2 -3 4 -9 14 -12 10 -4 34 -13
52 -20 l33 -13 -1 -218 c-1 -120 2 -216 7 -213 4 3 8 120 7 262 l0 256 43 4
c29 2 44 -1 48 -10 3 -8 5 -137 5 -288 0 -175 4 -274 10 -274 9 0 6 444 -5
561 l-4 47 59 -16 60 -16 2 -310 c2 -195 7 -311 13 -313 7 -2 10 109 9 322 -1
179 2 325 5 324 3 0 33 -10 66 -22 l60 -22 3 -320 c1 -176 5 -327 10 -335 4
-8 9 127 12 301 l5 316 58 -25 57 -25 0 -308 c-1 -170 2 -314 6 -320 9 -15 63
-3 132 27 30 13 57 24 60 24 2 0 2 -22 0 -48 l-5 -48 151 -42 c261 -72 361
-96 379 -89 23 9 24 92 2 101 -8 3 -15 12 -15 20 0 7 7 16 15 20 10 4 15 19
15 48 -1 40 -4 45 -46 71 -25 15 -50 27 -55 27 -6 0 -9 6 -7 13 4 11 299 169
305 163 2 -1 -11 -43 -27 -92 -33 -95 -95 -318 -104 -371 -4 -26 -2 -33 10
-33 10 0 14 6 11 15 -9 22 4 25 51 13 34 -8 40 -13 31 -24 -9 -11 -7 -14 10
-14 15 0 21 6 21 23 0 13 22 96 49 185 27 88 52 183 56 211 10 75 25 52 25
-38 0 -146 14 -416 20 -386 3 17 4 104 2 194 l-4 164 48 -8 c27 -4 53 -9 58
-12 5 -4 7 -79 4 -172 -3 -91 -2 -177 2 -191 11 -36 13 17 10 303 l-2 237 23
-1 c13 0 33 -4 44 -8 19 -8 20 -16 16 -278 -2 -191 0 -272 8 -277 8 -5 11 50
11 198 0 121 4 206 9 206 17 0 65 -21 72 -31 3 -5 4 -24 3 -42 -7 -67 8 -347
19 -347 7 0 8 106 4 338 -4 185 -7 349 -7 363 0 24 -5 27 -43 33 -38 6 -58 0
-194 -63 -208 -96 -242 -99 -56 -4 84 42 152 78 150 79 -1 1 -79 19 -172 39
-718 153 -1384 401 -1920 716 -133 77 -433 276 -539 356 l-48 36 4 -171z m526
-479 c6 -32 9 -59 8 -60 -1 -1 -20 -5 -43 -9 l-41 -6 -10 58 c-11 66 -7 74 45
74 30 0 31 -2 41 -57z m1095 -533 c89 -28 262 -76 385 -107 122 -31 222 -60
222 -64 0 -5 -4 -9 -9 -9 -22 0 -453 114 -604 159 -92 28 -170 51 -172 51 -3
0 -5 5 -5 10 0 15 9 13 183 -40z m795 -146 c18 -12 32 -54 18 -54 -18 0 -76
33 -76 43 0 30 24 35 58 11z m192 1 c0 -9 -6 -12 -15 -9 -8 4 -12 10 -9 15 8
14 24 10 24 -6z m-32 -21 c18 -5 22 -13 22 -46 0 -33 -3 -39 -17 -34 -10 2
-33 7 -50 11 -28 6 -33 11 -33 34 0 15 3 31 7 34 8 9 41 9 71 1z m194 -14 c34
-10 37 -14 36 -45 -1 -38 -8 -41 -57 -24 -27 9 -31 16 -31 45 0 38 0 38 52 24z
m-372 -20 c37 -19 53 -40 30 -40 -21 0 -80 35 -80 47 0 17 4 17 50 -7z m-720
-65 c0 -46 3 -55 18 -55 15 0 328 -102 385 -125 9 -4 17 -14 17 -22 0 -21 -36
-13 -277 61 l-202 63 -66 -29 c-84 -37 -135 -47 -135 -26 0 10 33 28 95 52
104 40 115 42 115 24 0 -7 7 -2 16 10 9 13 13 26 10 29 -3 4 -54 -12 -113 -34
-60 -23 -111 -39 -114 -37 -4 2 -4 14 -2 28 4 20 23 31 121 70 65 25 120 45
125 46 4 0 7 -25 7 -55z m216 -16 c104 -38 199 -77 212 -85 20 -13 30 -52 17
-66 -3 -2 -101 27 -217 66 l-213 71 -3 43 c-2 23 1 42 6 42 5 0 94 -32 198
-71z m491 44 c21 -10 39 -18 41 -19 1 -1 -20 -75 -47 -165 l-49 -164 -43 3
c-24 2 -45 4 -46 6 -8 7 92 356 102 356 2 0 21 -8 42 -17z m175 -19 c20 -4 39
-13 43 -21 4 -13 -1 -14 -32 -9 -56 10 -73 16 -73 27 0 11 11 11 62 3z m232
-25 c19 -17 -3 -20 -38 -5 -46 19 -49 39 -3 24 17 -6 36 -15 41 -19z m-951
-149 c111 -33 221 -64 245 -70 41 -10 42 -12 42 -50 0 -22 -3 -40 -8 -40 -4 0
-90 23 -192 51 -102 28 -211 58 -242 66 l-58 15 0 44 c0 24 3 44 6 44 3 0 97
-27 207 -60z"/>
<path d="M2070 7015 c0 -8 82 -47 87 -41 3 2 -13 14 -36 25 -41 22 -51 25 -51
16z"/>
<path d="M2103 6945 c24 -22 57 -33 57 -21 0 5 -69 46 -78 46 -4 0 6 -12 21
-25z"/>
<path d="M3124 6505 c11 -8 27 -15 35 -15 10 1 7 6 -9 15 -33 19 -50 18 -26 0z"/>
<path d="M3110 6481 c0 -9 44 -31 62 -31 16 0 -1 13 -34 28 -16 6 -28 8 -28 3z"/>
<path d="M3256 6481 c11 -12 84 -43 84 -36 0 5 -76 45 -87 45 -4 0 -3 -4 3 -9z"/>
<path d="M2970 6472 c0 -10 50 -35 57 -28 3 2 -9 12 -26 21 -17 8 -31 12 -31
7z"/>
<path d="M3250 6445 c0 -7 58 -35 72 -35 7 1 -3 9 -22 20 -35 19 -50 24 -50
15z"/>
<path d="M2970 6430 c0 -4 14 -13 30 -19 17 -5 30 -7 30 -3 0 4 -13 13 -30 19
-16 6 -30 8 -30 3z"/>
<path d="M2980 6261 c8 -5 26 -12 40 -15 l25 -7 -25 15 c-14 9 -32 15 -40 15
-13 0 -13 -1 0 -8z"/>
<path d="M2976 6231 c5 -5 20 -12 34 -15 l25 -7 -25 15 c-28 17 -50 21 -34 7z"/>
<path d="M3100 6116 c0 -7 69 -36 84 -36 13 1 -30 25 -61 34 -13 4 -23 5 -23
2z"/>
<path d="M3110 6074 c0 -6 65 -34 77 -34 9 1 -58 39 -69 40 -5 0 -8 -2 -8 -6z"/>
<path d="M3262 6015 c3 -3 21 -10 39 -15 31 -9 32 -8 15 5 -18 14 -66 22 -54
10z"/>
<path d="M3250 5994 c0 -8 62 -35 72 -32 6 2 -8 11 -31 20 -22 9 -41 15 -41
12z"/>
<path d="M4470 5780 c0 -6 7 -10 15 -10 8 0 15 2 15 4 0 2 -7 6 -15 10 -8 3
-15 1 -15 -4z"/>
<path d="M4462 5748 c3 -7 20 -14 39 -16 40 -4 30 12 -14 22 -21 5 -28 3 -25
-6z"/>
<path d="M1940 6295 c0 -126 7 -142 52 -111 12 9 25 16 28 16 3 0 4 -158 2
-351 -2 -241 0 -355 7 -362 8 -8 11 94 11 351 0 283 3 362 13 362 6 0 37 -13
67 -28 49 -25 55 -31 53 -58 -1 -16 -5 -178 -9 -360 -5 -224 -4 -333 3 -337 7
-5 12 99 15 323 2 228 7 333 15 341 8 8 24 4 63 -17 l52 -29 -1 -342 c-1 -228
2 -343 9 -343 7 0 10 110 10 326 0 179 4 324 8 322 5 -1 34 -14 65 -28 l57
-25 0 -327 c0 -212 4 -328 10 -328 6 0 10 98 10 274 0 151 3 281 6 290 4 11
19 16 49 16 l43 0 4 -47 c3 -27 3 -50 1 -53 -3 -4 -21 2 -75 25 -15 6 -18 1
-18 -30 0 -20 9 -72 20 -115 11 -44 36 -154 55 -247 20 -92 38 -169 40 -172
19 -18 10 41 -42 276 -34 152 -56 270 -50 272 5 2 13 -3 18 -10 4 -7 20 -14
36 -14 26 -2 29 -6 45 -71 33 -132 88 -410 88 -447 0 -20 5 -37 10 -37 6 0 10
9 10 19 0 18 34 51 52 51 5 0 8 -25 8 -55 0 -52 1 -54 33 -63 17 -5 133 -40
257 -76 124 -37 232 -69 241 -72 13 -3 18 6 23 42 10 74 8 81 -19 88 -22 6
-25 11 -25 55 0 36 -4 51 -16 55 -20 8 -15 29 30 127 l35 76 68 28 c37 15 92
38 122 51 30 14 56 22 59 19 3 -3 -7 -33 -22 -67 -71 -159 -195 -448 -201
-467 -8 -26 13 -29 22 -3 12 35 122 299 152 364 l30 67 33 -14 c18 -7 32 -20
31 -27 0 -7 -37 -96 -81 -198 -95 -220 -99 -230 -78 -230 10 0 16 9 16 22 0
11 28 85 61 162 34 78 83 193 109 256 26 63 51 114 56 113 5 -2 10 -138 12
-303 1 -199 6 -300 13 -300 7 0 9 99 7 305 l-3 305 27 0 c61 0 58 15 59 -304
0 -160 4 -300 9 -311 5 -12 9 110 9 296 l1 316 38 -6 37 -6 3 -318 c1 -200 6
-317 12 -317 6 0 10 9 10 19 0 12 11 23 31 30 46 16 47 15 52 -26 l4 -38 1 38
c2 31 5 37 25 37 36 0 531 -50 545 -55 7 -2 12 -22 12 -45 l0 -40 60 -1 c33
-1 65 -2 71 -3 17 -1 13 666 -4 676 -30 19 -91 6 -209 -45 -68 -30 -149 -64
-180 -76 l-58 -23 0 -69 c0 -89 -18 -90 -22 -2 l-3 68 -149 22 c-82 13 -151
25 -154 28 -17 17 25 15 158 -7 l151 -26 167 71 c166 71 167 72 127 79 -22 4
-132 21 -245 38 -746 114 -1469 357 -2080 698 -74 41 -172 99 -218 129 -45 29
-85 53 -87 53 -3 0 -5 -52 -5 -115z m1740 -777 c0 -6 -30 -88 -35 -96 -1 -1
-16 3 -33 9 -36 12 -44 34 -9 26 20 -6 21 -5 4 8 -17 12 -17 16 -3 48 14 35
16 35 45 24 17 -6 31 -15 31 -19z m-910 -177 c0 -30 -5 -42 -24 -55 -27 -17
-26 -20 -41 48 -7 32 5 46 43 46 19 0 22 -5 22 -39z m275 -44 l220 -74 3 -38
c3 -28 0 -36 -10 -33 -7 3 -118 35 -245 73 l-233 68 0 37 c0 42 7 52 29 45 9
-3 115 -38 236 -78z m28 -110 l249 -71 -7 -46 c-4 -25 -8 -46 -9 -47 0 -1 -96
27 -211 62 -116 35 -229 68 -252 74 -40 11 -43 14 -43 46 0 18 -3 41 -7 51 -5
14 -3 16 13 10 10 -4 131 -40 267 -79z m963 -28 c-2 -25 -11 -34 -43 -49 l-41
-18 -5 26 c-7 36 0 49 31 61 50 18 62 14 58 -20z m259 11 c261 -29 245 -25
245 -65 0 -19 -3 -35 -7 -35 -5 -1 -115 12 -245 27 l-238 28 0 32 c0 31 2 33
33 33 17 0 113 -9 212 -20z m298 -130 c4 0 7 -18 7 -41 0 -34 -3 -40 -16 -35
-14 5 -486 66 -514 66 -5 0 -10 17 -10 38 l0 38 263 -33 c144 -17 265 -32 270
-33z m-553 25 c0 -30 -3 -35 -22 -35 -13 0 -33 -3 -45 -6 -20 -5 -23 -2 -23
20 0 21 7 30 33 41 49 22 57 19 57 -20z m8 -77 c-2 -15 -12 -24 -33 -29 -16
-4 -38 -10 -47 -14 -15 -6 -18 -2 -18 23 0 32 10 38 73 41 24 1 28 -3 25 -21z
m307 -10 c94 -11 173 -23 177 -27 4 -3 3 -13 -2 -21 -8 -12 -32 -12 -187 3
-306 31 -283 26 -283 55 0 28 -22 29 295 -10z"/>
<path d="M2100 6090 c19 -11 42 -19 50 -19 8 0 -1 8 -20 19 -19 11 -42 19 -50
19 -8 0 1 -8 20 -19z"/>
<path d="M2070 6075 c0 -6 56 -35 67 -35 4 0 -5 9 -22 20 -29 19 -45 25 -45
15z"/>
<path d="M2210 6010 c0 -11 69 -42 82 -38 5 2 -11 13 -36 26 -25 12 -46 17
-46 12z"/>
<path d="M2210 5975 c0 -7 58 -35 72 -35 7 1 -3 9 -22 20 -35 19 -50 24 -50
15z"/>
<path d="M2389 5729 c24 -11 46 -17 48 -15 7 7 -54 36 -74 35 -10 0 2 -9 26
-20z"/>
<path d="M2350 5704 c0 -7 66 -34 82 -33 7 0 -5 9 -27 19 -43 20 -55 23 -55
14z"/>
<path d="M2074 5571 c8 -12 66 -32 66 -22 0 8 -44 31 -61 31 -6 0 -8 -4 -5 -9z"/>
<path d="M2083 5536 c15 -14 35 -26 44 -26 19 0 19 0 -32 29 l-40 23 28 -26z"/>
<path d="M2210 5506 c0 -9 71 -48 77 -43 3 3 -10 15 -28 26 -33 20 -49 26 -49
17z"/>
<path d="M2215 5464 c32 -24 75 -45 75 -36 0 9 -72 52 -86 52 -5 0 0 -8 11
-16z"/>
<path d="M3777 5414 c-9 -9 -9 -117 0 -220 9 -103 21 -59 21 81 0 102 -7 152
-21 139z"/>
<path d="M3900 5224 c0 -76 -2 -184 -5 -239 -3 -83 -3 -90 5 -40 10 76 16 402
7 411 -4 4 -7 -55 -7 -132z"/>
<path d="M3860 5048 c0 -109 4 -158 10 -148 13 20 13 310 0 310 -6 0 -10 -61
-10 -162z"/>
<path d="M1940 5239 l0 -120 28 3 27 3 3 -347 c1 -221 6 -348 12 -348 6 0 10
126 10 350 0 193 3 350 6 350 3 0 18 -7 32 -16 l27 -15 -4 -167 c-3 -162 10
-568 17 -507 l3 31 64 -16 65 -15 0 -48 0 -49 33 7 c17 4 65 20 105 36 40 16
77 29 83 29 6 0 9 -19 7 -47 -3 -43 -5 -47 -37 -58 -22 -7 -30 -14 -23 -19 6
-4 21 -2 32 4 17 9 71 -5 298 -76 322 -101 372 -115 372 -105 0 4 -87 34 -192
67 l-193 60 -3 63 c-3 61 -3 63 20 56 18 -6 350 -112 406 -130 8 -3 12 -25 12
-65 0 -33 4 -60 10 -60 6 0 10 29 10 66 0 64 -1 66 -30 77 -29 11 -30 14 -30
74 0 59 -2 64 -26 73 -24 10 -25 13 -19 63 6 43 4 57 -10 70 -9 10 -21 17 -26
17 -5 0 -9 16 -9 35 0 30 -5 37 -31 48 l-31 12 141 62 141 62 0 -340 c0 -219
4 -339 10 -339 6 0 10 120 10 341 l0 342 66 -6 c37 -4 68 -8 70 -10 2 -2 4
-133 5 -293 2 -304 7 -404 18 -404 3 0 5 141 3 313 l-4 314 76 -16 76 -15 0
-313 c0 -202 4 -313 10 -313 6 0 10 110 10 311 l0 311 48 -6 c91 -13 82 21 82
-321 0 -192 4 -306 10 -310 7 -4 10 102 10 309 l0 316 60 0 60 0 0 -314 c0
-199 4 -317 10 -321 7 -4 10 90 10 274 0 266 5 319 28 274 5 -10 44 -141 87
-290 l78 -273 33 0 c17 0 42 8 54 18 l22 18 -21 84 c-21 87 -84 323 -95 358
-6 17 1 21 46 30 29 6 56 7 60 4 4 -4 8 -125 10 -269 2 -145 6 -263 11 -263 4
0 7 97 7 215 l0 215 28 -5 27 -5 -27 12 c-39 17 -35 28 9 21 26 -4 34 -3 29 5
-4 7 -20 12 -37 12 -27 0 -29 3 -29 35 0 29 4 36 25 41 54 13 55 10 55 -193 0
-103 3 -226 8 -273 5 -66 8 -19 12 204 l5 290 27 7 c31 8 38 -3 38 -62 0 -37
-2 -39 -25 -33 -16 4 -25 2 -25 -6 0 -6 4 -9 9 -6 4 3 17 -1 27 -9 18 -14 17
-14 -11 -16 -27 -1 -28 -2 -7 -8 26 -7 28 -20 31 -298 1 -98 5 -143 12 -143 8
0 10 65 7 231 l-4 231 43 -5 c24 -2 43 -1 43 4 0 5 -13 9 -29 9 -16 0 -36 3
-45 6 -22 8 -20 27 2 20 51 -14 82 -17 82 -7 0 6 -17 11 -38 11 -47 0 -62 14
-62 57 l0 33 58 0 57 0 -4 -300 c-2 -215 0 -300 8 -300 8 0 11 76 11 258 0
142 3 261 6 264 3 3 14 4 25 1 18 -5 19 -16 19 -188 0 -187 8 -335 19 -335 3
0 4 121 3 269 l-4 270 49 4 48 3 -47 2 c-44 2 -48 4 -48 27 0 23 3 25 50 25
l50 0 0 -301 c0 -197 3 -298 10 -294 6 4 10 102 10 262 0 229 2 255 16 249 9
-3 20 -6 25 -6 5 0 9 -107 9 -255 0 -165 4 -255 10 -255 7 0 9 119 8 352 l-3
353 -63 8 c-60 7 -68 5 -246 -58 l-184 -66 -108 12 c-60 7 -113 16 -118 21
-13 11 44 10 140 -2 l79 -11 155 54 155 55 -70 6 c-38 4 -137 14 -220 22 -807
80 -1568 290 -2207 610 -70 35 -130 64 -133 64 -3 0 -5 -54 -5 -121z m235
-216 l55 -27 0 -244 0 -243 -37 7 c-21 4 -49 10 -63 14 l-25 6 -3 257 c-1 166
1 257 8 257 5 0 34 -12 65 -27z m345 -286 c0 -31 -3 -34 -57 -54 -32 -12 -94
-36 -138 -52 -44 -17 -81 -31 -82 -31 -2 0 -3 11 -3 25 0 15 9 29 23 36 17 10
242 105 255 108 1 1 2 -14 2 -32z m265 -66 c191 -72 210 -82 213 -104 3 -25 2
-25 -175 40 -98 36 -202 73 -230 82 -48 14 -53 19 -53 45 0 22 4 27 18 23 9
-3 112 -42 227 -86z m-289 -6 c-32 -13 -68 -33 -80 -43 -30 -28 -165 -82 -172
-70 -4 5 -2 14 4 20 15 15 263 116 287 117 11 0 -6 -10 -39 -24z m65 -50 c-2
-33 0 -45 8 -41 6 4 11 27 11 52 0 24 2 44 4 44 7 0 386 -137 430 -155 38 -16
38 -17 33 -61 -2 -25 -7 -48 -10 -51 -3 -3 -25 2 -49 10 -344 122 -507 177
-528 177 -14 0 -32 5 -40 10 -12 7 -9 11 15 20 17 6 48 19 70 29 22 11 45 18
50 17 6 -2 8 -24 6 -51z m-151 -95 c0 -33 1 -63 1 -67 1 -5 -35 -22 -80 -40
l-81 -31 0 71 0 72 68 26 c94 37 92 38 92 -31z m384 -60 c159 -55 291 -100
293 -100 1 0 3 -25 3 -56 0 -41 -3 -55 -12 -51 -96 36 -632 206 -639 202 -5
-4 -9 22 -9 58 l0 65 38 -9 c20 -4 167 -53 326 -109z m1220 103 c24 -83 146
-542 146 -550 0 -11 -58 -39 -65 -31 -6 6 -167 548 -169 568 0 8 11 17 29 21
48 11 53 10 59 -8z m546 -58 c0 -33 -2 -35 -20 -25 -30 16 -26 60 7 60 8 0 13
-13 13 -35z m-2390 1 c48 -11 55 -16 58 -39 4 -31 6 -31 -56 -16 -56 14 -72
25 -72 50 0 22 -1 22 70 5z m289 -81 c-7 -7 -190 -75 -202 -75 -22 0 7 15 86
46 72 28 129 42 116 29z m114 -27 l57 -20 0 -59 c0 -69 -2 -70 -95 -36 l-60
22 -3 49 c-4 61 3 80 26 71 9 -4 43 -16 75 -27z m115 -95 c3 -67 2 -69 -29
-53 -15 9 -19 22 -19 66 0 52 1 55 23 52 20 -3 22 -9 25 -65z"/>
<path d="M2495 4520 c3 -5 63 -28 133 -51 70 -22 134 -43 142 -46 10 -4 12 -2
5 5 -8 9 -266 102 -282 102 -2 0 -1 -4 2 -10z"/>
<path d="M2494 4481 c8 -12 254 -93 269 -88 9 3 -251 97 -269 97 -3 0 -3 -4 0
-9z"/>
<path d="M3315 4685 c17 -8 39 -14 50 -14 13 0 8 5 -15 14 -46 18 -74 17 -35
0z"/>
<path d="M3305 4645 c17 -8 41 -14 55 -14 23 0 23 1 5 8 -11 5 -36 11 -55 15
l-35 6 30 -15z"/>
<path d="M3762 4586 c11 -12 78 -25 78 -15 0 5 -8 9 -17 9 -10 0 -29 3 -43 7
-14 3 -22 3 -18 -1z"/>
<path d="M3450 4551 c8 -5 33 -12 55 -15 l40 -6 -35 14 c-40 17 -85 21 -60 7z"/>
<path d="M3756 4550 c6 -6 31 -13 55 -16 45 -4 31 4 -36 20 -23 6 -27 5 -19
-4z"/>
<path d="M3610 4530 c0 -4 14 -10 31 -14 39 -8 54 -8 46 0 -10 10 -77 22 -77
14z"/>
<path d="M3455 4511 c34 -15 91 -24 80 -13 -5 5 -30 13 -55 16 -29 4 -38 3
-25 -3z"/>
<path d="M3604 4499 c-3 -5 1 -9 9 -9 8 0 30 -3 48 -6 45 -9 31 5 -15 16 -20
4 -39 4 -42 -1z"/>
<path d="M4423 4463 c9 -2 25 -2 35 0 9 3 1 5 -18 5 -19 0 -27 -2 -17 -5z"/>
<path d="M3290 4192 c0 -5 19 -14 42 -20 47 -12 64 -8 27 6 -51 19 -69 23 -69
14z"/>
<path d="M3276 4161 c6 -7 35 -18 64 -26 29 -8 49 -10 44 -5 -5 4 -25 13 -44
18 -19 5 -44 13 -55 17 -15 6 -17 5 -9 -4z"/>
<path d="M3456 4110 c6 -6 31 -14 55 -16 54 -6 34 11 -26 21 -31 6 -37 5 -29
-5z"/>
<path d="M3620 4090 c0 -4 10 -10 23 -14 26 -7 72 -8 66 -2 -9 10 -89 24 -89
16z"/>
<path d="M3456 4080 c6 -6 31 -13 55 -16 45 -4 31 4 -36 20 -23 6 -27 5 -19
-4z"/>
<path d="M3610 4051 c0 -9 49 -22 79 -20 12 0 11 2 -4 8 -39 15 -75 21 -75 12z"/>
<path d="M1312 6546 c-7 -34 -24 -153 -39 -262 -25 -184 -27 -227 -27 -554 -1
-316 2 -373 22 -520 76 -557 246 -1055 495 -1455 67 -107 202 -289 298 -401
343 -400 826 -707 1297 -823 230 -58 535 -83 742 -63 l95 9 -76 2 c-591 10
-1073 182 -1519 540 -171 137 -276 238 -395 378 -425 502 -701 1101 -830 1798
-61 330 -69 431 -70 825 0 240 4 402 13 474 15 122 11 149 -6 52z"/>
<path d="M8543 5791 c-148 -35 -176 -53 -104 -65 75 -12 71 24 71 -570 0 -421
-3 -536 -13 -550 -7 -10 -28 -21 -47 -25 -21 -4 -36 -14 -38 -24 -3 -16 13
-17 187 -17 184 0 191 1 191 20 0 15 -7 20 -28 20 -17 0 -37 9 -48 21 -18 20
-19 49 -24 623 l-5 601 -142 -34z"/>
<path d="M5780 5759 c-117 -20 -213 -87 -261 -185 -20 -41 -24 -64 -24 -144 0
-79 4 -102 22 -137 39 -71 113 -134 260 -217 186 -105 236 -145 269 -212 50
-102 17 -226 -73 -270 -48 -23 -187 -31 -248 -14 -85 24 -162 120 -201 250
-13 43 -18 50 -41 50 l-26 0 7 -147 c4 -82 11 -152 15 -156 39 -39 349 -71
461 -48 178 37 278 148 288 316 10 183 -52 265 -317 415 -171 97 -214 130
-240 182 -25 52 -28 135 -6 177 67 130 294 135 385 10 17 -24 40 -73 51 -111
18 -60 24 -68 45 -68 l25 0 -3 132 -3 131 -40 14 c-52 19 -199 43 -250 42 -22
-1 -65 -5 -95 -10z"/>
<path d="M6756 5369 c-238 -36 -394 -253 -356 -497 22 -136 93 -244 198 -300
194 -104 428 -71 567 80 82 88 100 143 100 303 0 120 -2 134 -27 187 -32 69
-108 147 -174 181 -86 43 -209 61 -308 46z m120 -44 c86 -25 149 -110 180
-242 21 -90 15 -306 -11 -377 -24 -66 -88 -131 -144 -146 -165 -44 -291 105
-308 365 -13 207 49 360 163 400 50 18 60 18 120 0z"/>
<path d="M7505 5340 c-94 -19 -130 -30 -130 -40 0 -9 15 -17 39 -21 65 -11 66
-13 66 -294 0 -271 6 -312 54 -385 49 -75 178 -108 290 -76 72 21 120 51 168
103 l36 41 6 -30 c3 -17 6 -52 6 -78 l0 -47 93 18 c50 10 108 19 128 19 40 0
76 21 65 38 -4 7 -22 12 -40 12 -21 0 -40 8 -52 21 -18 20 -19 43 -22 386 -3
337 -4 364 -20 361 -238 -45 -272 -54 -272 -70 0 -14 8 -18 33 -18 18 0 42 -6
53 -14 18 -14 19 -30 22 -280 l3 -265 -39 -39 c-70 -70 -188 -91 -251 -45 -73
55 -81 102 -81 461 0 212 -3 272 -12 270 -7 0 -71 -13 -143 -28z"/>
<path d="M1940 4185 c0 -52 4 -95 9 -95 5 0 28 7 51 15 66 23 70 21 68 -31 -1
-39 -5 -47 -27 -55 -57 -21 -103 -43 -93 -47 5 -1 33 6 61 17 28 10 54 15 57
10 7 -11 -4 -29 -18 -29 -23 0 -122 -33 -111 -37 7 -3 37 3 67 11 30 9 57 16
60 16 3 0 6 -72 6 -159 0 -96 4 -162 10 -166 7 -4 10 80 10 244 0 247 0 251
21 251 27 0 112 -21 123 -30 4 -5 8 -145 8 -312 -1 -166 3 -321 7 -343 6 -28
9 14 10 133 l1 173 74 35 c41 19 76 34 78 34 2 0 2 -126 0 -281 -2 -154 0
-288 5 -297 4 -10 10 116 13 283 l5 300 45 -2 c82 -4 90 -9 90 -53 l0 -39 -47
14 c-56 17 -71 19 -57 6 5 -4 30 -14 57 -21 l47 -13 0 -288 c0 -186 4 -289 10
-289 6 0 10 98 10 273 l1 272 95 -240 c52 -132 103 -260 112 -284 18 -45 41
-66 38 -36 -2 24 103 63 115 44 16 -26 9 -36 -31 -48 -22 -7 -38 -16 -35 -20
5 -9 85 5 97 17 4 4 -47 137 -112 296 -66 159 -117 293 -114 298 3 4 10 8 15
8 5 0 59 23 119 50 60 28 112 50 115 50 3 0 5 -164 5 -364 0 -233 4 -367 10
-371 7 -4 10 120 10 366 l0 371 58 -6 c102 -13 93 16 90 -264 -3 -201 -6 -246
-16 -244 -57 12 -104 14 -99 5 4 -6 29 -14 56 -18 58 -8 60 -11 63 -140 2 -85
14 217 17 426 l1 96 43 12 c23 7 79 28 125 46 l82 33 0 -364 c0 -236 4 -364
10 -364 6 0 10 128 10 365 l0 365 28 0 c15 0 44 -3 65 -7 l38 -6 -3 -64 c-3
-72 3 -68 -84 -47 -16 4 -26 4 -23 0 4 -4 29 -12 55 -19 l49 -12 -3 -286 c-3
-200 -1 -289 7 -293 8 -5 11 47 11 181 0 103 3 232 7 286 l6 97 34 0 33 0 2
-292 c1 -161 4 -266 7 -233 6 59 7 60 39 63 l32 3 0 -60 0 -61 93 0 c52 0 202
-3 335 -7 l242 -6 0 336 0 336 38 10 c20 6 40 11 45 11 4 0 7 -39 7 -88 l0
-88 -42 3 c-33 2 -38 1 -23 -6 11 -5 30 -10 43 -10 l22 -1 0 -245 c0 -157 4
-245 10 -245 6 0 10 122 10 345 l0 345 40 0 40 0 0 -345 c0 -223 4 -345 10
-345 6 0 10 118 10 335 l0 335 45 0 45 0 0 -59 0 -60 -37 -4 -38 -4 38 -1 37
-2 1 -217 c0 -120 4 -240 8 -268 7 -46 8 -42 15 56 8 97 1 648 -8 656 -2 2
-145 8 -317 13 -525 16 -898 56 -1363 146 -398 77 -719 171 -1108 323 l-28 11
0 -95z m787 -467 c18 -46 70 -177 117 -293 47 -115 86 -215 86 -222 0 -12 -97
-49 -106 -40 -7 7 -205 497 -219 543 -7 22 -10 46 -7 51 7 11 69 41 87 42 6 1
25 -36 42 -81z m1584 -10 c-7 -51 -28 -49 -22 2 4 40 9 52 20 46 4 -3 5 -24 2
-48z m-633 -28 c6 0 12 -7 12 -15 0 -17 -65 -22 -75 -5 -10 17 6 32 29 26 11
-3 27 -6 34 -6z m742 -266 l0 -265 -47 3 c-48 3 -48 3 -51 41 -3 32 0 39 17
44 18 5 21 13 21 69 0 34 -4 65 -9 68 -5 3 -54 9 -110 12 l-101 7 0 107 0 107
138 35 c75 20 138 36 140 37 1 0 2 -118 2 -265z m-732 209 c2 -8 -5 -13 -16
-13 -28 0 -52 10 -52 22 0 14 63 5 68 -9z m382 -243 c292 -16 270 -11 270 -72
l0 -51 -187 7 c-104 3 -227 9 -275 13 l-88 6 0 60 0 60 38 -6 c20 -3 129 -11
242 -17z m-300 -44 c0 -40 -4 -55 -16 -60 -38 -15 -44 -8 -44 54 l0 60 30 0
c30 0 30 -1 30 -54z m0 -132 c0 -44 0 -44 -36 -44 l-35 0 3 42 c3 35 7 43 28
49 36 9 40 3 40 -47z m388 40 l152 -6 0 -46 0 -45 -67 6 c-38 4 -155 7 -260 7
l-193 0 0 51 0 51 108 -6 c59 -3 176 -9 260 -12z m129 -110 l121 -6 4 -45 c2
-24 1 -46 -1 -49 -7 -7 -492 -5 -560 2 l-61 7 0 51 0 51 187 -2 c104 -2 243
-6 310 -9z"/>
<path d="M2871 3204 c-19 -8 -32 -17 -29 -19 5 -6 78 22 78 30 0 8 -13 5 -49
-11z"/>
<path d="M3895 3220 c28 -5 104 -8 170 -8 113 1 116 2 45 8 -41 4 -118 7 -170
7 -82 0 -88 -1 -45 -7z"/>
<path d="M6505 4078 c-33 -10 -97 -25 -142 -34 -64 -13 -83 -21 -83 -33 0 -13
9 -17 35 -17 22 0 43 -7 55 -19 18 -19 19 -44 22 -538 l3 -519 -24 -19 c-13
-10 -34 -19 -47 -19 -17 0 -24 -6 -24 -20 0 -19 7 -20 180 -20 173 0 180 1
180 20 0 13 -7 20 -19 20 -10 0 -29 9 -42 19 -24 19 -24 20 -27 267 -2 136 -1
258 2 270 9 36 57 85 101 105 85 39 199 10 240 -61 18 -32 20 -56 23 -297 3
-253 3 -262 -17 -282 -12 -12 -32 -21 -46 -21 -18 0 -25 -5 -25 -20 0 -19 7
-20 185 -20 178 0 185 1 185 20 0 13 -7 20 -19 20 -71 0 -75 15 -81 330 l-5
275 -28 58 c-35 69 -78 102 -160 118 -110 22 -244 -23 -314 -106 l-38 -46 -5
294 -5 293 -60 -18z"/>
<path d="M8355 4069 c-60 -15 -122 -31 -137 -34 -42 -8 -36 -35 7 -35 22 0 43
-8 55 -20 19 -19 20 -33 20 -540 0 -507 -1 -521 -20 -540 -11 -11 -31 -20 -45
-20 -18 0 -25 -5 -25 -20 0 -19 7 -20 180 -20 173 0 180 1 180 20 0 14 -7 20
-23 20 -13 0 -32 9 -43 21 -18 20 -19 47 -22 610 -1 324 -6 588 -10 588 -4 -1
-56 -14 -117 -30z"/>
<path d="M9020 4081 c-86 -27 -153 -84 -194 -166 -27 -55 -49 -167 -44 -230
l3 -40 -63 -3 c-61 -3 -62 -3 -62 -32 l0 -30 66 0 65 0 -3 -331 -3 -331 -24
-19 c-13 -10 -34 -19 -47 -19 -17 0 -24 -6 -24 -20 0 -19 7 -20 195 -20 188 0
195 1 195 20 0 16 -7 20 -33 20 -50 0 -69 20 -76 76 -3 27 -5 178 -3 337 l3
287 99 0 100 0 0 30 0 30 -100 0 -99 0 -5 33 c-3 17 -12 71 -21 118 -19 106
-19 150 -1 193 28 67 93 53 138 -29 32 -60 70 -80 117 -64 38 13 51 35 51 86
0 45 -25 78 -76 99 -36 15 -113 17 -154 5z"/>
<path d="M5673 4025 c-101 -31 -167 -89 -211 -183 -21 -46 -23 -64 -20 -135 7
-152 63 -218 293 -348 216 -121 275 -187 275 -305 0 -55 -36 -121 -82 -152
-34 -22 -54 -27 -126 -30 -102 -5 -154 7 -210 48 -48 34 -86 95 -117 188 -17
52 -27 68 -44 70 -21 3 -22 2 -19 -150 l3 -153 90 -24 c122 -32 341 -36 425
-7 103 36 172 96 214 185 31 68 30 219 -2 278 -49 94 -107 140 -322 259 -154
85 -203 131 -219 204 -19 90 9 159 81 200 35 20 57 24 118 25 64 0 82 -4 121
-27 63 -37 106 -109 135 -225 2 -7 13 -13 24 -13 19 0 20 6 20 129 l0 129 -38
15 c-93 37 -303 49 -389 22z"/>
<path d="M2114 4021 c8 -13 83 -34 99 -28 14 5 -22 21 -72 32 -23 5 -31 4 -27
-4z"/>
<path d="M2135 3969 c22 -10 54 -18 70 -18 27 0 24 3 -20 19 -67 25 -103 24
-50 -1z"/>
<path d="M2125 3812 c6 -5 30 -13 55 -17 30 -5 42 -4 35 3 -5 5 -30 13 -55 17
-30 5 -42 4 -35 -3z"/>
<path d="M2115 3772 c6 -6 30 -14 55 -17 50 -6 30 7 -30 20 -24 5 -32 4 -25
-3z"/>
<path d="M3050 3750 c0 -4 17 -11 38 -14 20 -4 46 -10 57 -13 11 -3 16 -2 12
3 -12 12 -107 33 -107 24z"/>
<path d="M2450 3719 c0 -9 76 -32 92 -27 5 2 -13 11 -41 20 -28 9 -51 12 -51
7z"/>
<path d="M3056 3710 c5 -5 32 -12 59 -15 l50 -5 -50 15 c-60 17 -73 19 -59 5z"/>
<path d="M3510 3670 c8 -5 29 -10 45 -10 23 0 27 3 15 10 -8 5 -28 10 -45 10
-23 0 -27 -3 -15 -10z"/>
<path d="M7660 3659 c-215 -38 -351 -224 -338 -464 10 -197 147 -347 345 -377
110 -17 214 14 313 93 54 44 105 118 91 132 -8 8 -20 3 -43 -19 -72 -66 -167
-99 -253 -88 -153 19 -241 121 -260 297 l-7 67 292 0 293 0 -7 68 c-9 90 -54
183 -108 222 -84 61 -208 88 -318 69z m158 -66 c44 -32 72 -94 79 -173 l6 -70
-197 0 -198 0 7 33 c24 121 63 187 130 222 41 22 136 15 173 -12z"/>
<path d="M4465 3560 c3 -5 17 -10 31 -10 14 0 22 4 19 10 -3 6 -17 10 -31 10
-14 0 -22 -4 -19 -10z"/>
<path d="M4586 3534 c-9 -24 -7 -292 3 -298 12 -8 21 80 21 201 0 95 -10 134
-24 97z"/>
<path d="M4675 3540 c3 -5 18 -10 33 -9 24 0 25 1 7 9 -28 12 -47 12 -40 0z"/>
<path d="M3055 3271 c6 -5 33 -12 60 -16 62 -8 40 9 -25 19 -29 5 -41 4 -35
-3z"/>
<path d="M3045 3232 c6 -6 33 -13 60 -17 62 -8 40 9 -25 20 -31 5 -42 4 -35
-3z"/>
</g>
</svg>
