<?xml version="1.0" standalone="no"?>
<!DOCTYPE svg PUBLIC "-//W3C//DTD SVG 20010904//EN"
 "http://www.w3.org/TR/2001/REC-SVG-20010904/DTD/svg10.dtd">
<svg version="1.0" xmlns="http://www.w3.org/2000/svg"
 width="1024.000000pt" height="658.000000pt" viewBox="0 0 1024.000000 658.000000"
 preserveAspectRatio="xMidYMid meet">

<g transform="translate(0.000000,658.000000) scale(0.100000,-0.100000)"
fill="#000000" stroke="none">
<path d="M0 3290 l0 -3290 5120 0 5120 0 0 3290 0 3290 -5120 0 -5120 0 0
-3290z m1606 3169 c139 -105 439 -303 624 -411 820 -483 1651 -773 2653 -928
73 -12 149 -25 170 -31 l37 -10 2 -1999 c2 -1100 3 -2096 3 -2212 l0 -213 -50
-8 c-87 -14 -1376 -13 -1625 1 -302 17 -597 40 -728 56 -59 7 -108 12 -110 11
-6 -5 170 -112 284 -171 286 -151 549 -236 839 -274 148 -19 409 -31 550 -25
77 3 136 3 130 0 -22 -9 -329 -55 -480 -71 -222 -24 -599 -24 -760 -1 -1185
171 -2153 1113 -2548 2477 -296 1021 -251 2128 128 3140 46 125 80 230 85 270
l8 65 89 84 c48 46 152 140 231 207 l143 124 109 0 108 0 108 -81z m7434
-2913 l0 -713 23 -21 c13 -12 37 -25 55 -28 18 -4 32 -10 32 -14 0 -5 3 -15 6
-24 5 -14 -18 -16 -216 -16 l-221 0 3 28 c2 22 8 28 36 30 22 2 38 12 50 30
16 24 17 75 17 627 1 330 -3 617 -8 638 -9 43 -33 57 -98 57 -35 0 -39 3 -39
25 0 14 3 25 6 25 17 0 255 52 294 64 25 7 48 12 53 9 4 -2 7 -325 7 -717z
m-2915 604 c73 -11 191 -45 213 -63 9 -7 12 -52 12 -164 l0 -154 -27 3 c-23 3
-28 11 -43 63 -34 123 -95 207 -174 240 -44 19 -167 22 -210 5 -108 -41 -157
-153 -121 -277 25 -86 91 -145 299 -268 199 -117 262 -173 308 -272 26 -55 33
-83 36 -154 15 -301 -212 -470 -577 -430 -111 12 -195 30 -256 55 l-35 15 0
103 c0 57 -3 140 -7 186 l-6 83 33 -3 c31 -3 33 -6 54 -78 41 -140 106 -234
188 -273 63 -30 143 -40 216 -27 81 14 109 28 155 79 43 48 61 107 54 177 -11
106 -76 186 -221 269 -47 28 -125 73 -173 100 -114 66 -185 135 -226 222 -30
64 -32 74 -32 183 0 101 3 121 24 163 87 176 269 252 516 217z m1040 -501
c205 -63 325 -238 325 -474 0 -247 -139 -436 -357 -486 -64 -14 -201 -14 -265
1 -296 69 -455 426 -318 718 60 128 202 238 340 261 73 13 199 4 275 -20z
m740 -316 c-6 -316 -5 -340 12 -372 31 -59 64 -76 146 -75 91 0 151 27 226
102 l54 53 -7 52 c-3 29 -6 131 -6 228 0 208 -4 219 -86 228 -44 5 -49 9 -49
30 0 24 5 26 85 37 77 11 197 36 243 50 16 5 17 -18 17 -386 0 -475 -3 -462
105 -472 24 -2 30 -8 30 -28 0 -24 -3 -25 -162 -49 -90 -13 -166 -21 -170 -17
-4 3 -9 58 -11 122 l-5 115 -67 -66 c-89 -85 -174 -126 -276 -133 -95 -6 -153
10 -208 59 -78 69 -81 84 -78 396 4 333 1 343 -99 343 -38 0 -40 2 -37 27 3
25 7 27 110 44 58 10 130 25 160 33 29 8 59 15 66 15 11 1 12 -62 7 -336z
m-946 -1906 c59 82 174 135 296 137 96 1 144 -14 197 -62 87 -79 98 -129 98
-482 1 -338 3 -348 72 -370 39 -12 48 -19 48 -37 l0 -23 -215 0 -215 0 0 24
c0 19 7 25 35 30 68 13 70 23 67 345 -2 157 -8 304 -13 325 -35 131 -220 168
-331 68 -67 -60 -68 -67 -68 -390 0 -276 1 -290 20 -315 12 -15 36 -29 55 -33
28 -5 35 -11 35 -30 l0 -24 -210 0 -210 0 0 25 c0 20 7 26 38 35 26 6 43 18
50 35 9 19 12 191 12 624 0 586 0 599 -20 624 -16 20 -31 27 -68 29 -42 3 -47
5 -47 27 0 23 6 26 95 42 52 9 129 26 170 36 l75 19 3 -349 2 -350 29 40z
m2041 -17 c0 -775 -3 -741 75 -762 37 -10 45 -16 43 -33 -3 -19 -11 -20 -216
-23 l-213 -2 3 27 c2 23 8 29 34 31 18 2 40 12 50 24 18 19 19 50 19 633 0
589 -1 614 -19 634 -14 16 -31 21 -68 21 -46 0 -48 1 -48 29 0 27 2 29 74 40
40 7 111 22 157 35 46 13 90 24 97 25 9 1 12 -141 12 -679z m792 646 c47 -23
71 -59 72 -112 1 -55 -28 -96 -77 -108 -54 -14 -83 4 -111 67 -42 95 -103 122
-157 68 -26 -27 -29 -36 -29 -98 0 -58 25 -281 36 -320 2 -10 35 -13 119 -13
l115 0 0 -35 0 -35 -121 0 -121 0 4 -382 c2 -283 6 -389 16 -405 11 -20 17
-21 100 -16 121 8 181 -7 226 -57 69 -76 67 -170 -4 -234 -46 -41 -93 -56
-178 -56 -96 0 -146 16 -186 61 -47 51 -60 102 -42 162 l14 47 -134 0 -134 0
0 24 c0 20 6 24 39 30 72 11 71 2 71 438 l0 388 -65 0 -65 0 0 35 0 34 68 3
67 3 6 120 c7 134 21 182 75 262 47 68 114 118 194 144 40 13 161 4 202 -15z
m-3651 -36 c98 -11 211 -43 234 -66 12 -12 15 -43 15 -160 l0 -144 -28 0 c-25
0 -29 5 -41 49 -19 74 -65 164 -103 202 -42 42 -94 59 -182 59 -146 0 -230
-78 -229 -211 0 -120 55 -191 218 -285 350 -200 428 -289 429 -489 1 -108 -12
-154 -64 -233 -48 -72 -122 -125 -211 -153 -125 -40 -343 -35 -492 11 -100 31
-95 19 -99 225 l-3 180 26 3 c24 3 27 -2 48 -74 59 -204 156 -299 315 -311
178 -14 299 80 299 232 0 126 -68 204 -282 325 -165 93 -240 150 -291 219 -88
117 -104 287 -41 416 57 115 162 186 306 205 85 11 82 11 176 0z m2201 -449
c137 -53 238 -210 238 -368 l0 -43 -324 0 c-179 0 -327 -3 -329 -7 -9 -17 12
-151 33 -205 26 -69 95 -149 153 -177 132 -64 270 -40 389 67 34 31 41 33 53
21 32 -32 -105 -184 -211 -234 -159 -75 -364 -37 -493 92 -258 259 -168 742
162 864 74 27 247 22 329 -10z"/>
<path d="M1315 6521 c-26 -11 -243 -202 -367 -324 l-97 -95 -3 -108 c-2 -60 0
-210 3 -334 3 -138 0 -334 -9 -505 -18 -362 -12 -1006 12 -1215 56 -490 168
-939 346 -1384 65 -163 146 -346 152 -346 9 0 2 4314 -7 4316 -5 1 -19 -1 -30
-5z"/>
<path d="M1395 6518 c-3 -7 -4 -1005 -3 -2218 l3 -2205 48 -88 c27 -49 52 -86
55 -82 4 4 9 109 12 234 l5 228 150 -59 c267 -106 618 -204 1075 -302 272 -58
398 -79 685 -116 425 -54 839 -80 1260 -80 l252 0 -1 -509 -1 -508 -119 -7
c-185 -10 -980 -7 -1191 4 -443 24 -1134 95 -1315 136 -24 5 -24 5 -6 -15 10
-11 64 -56 120 -100 l102 -80 204 -20 c584 -58 793 -66 1575 -64 385 1 713 5
728 10 l28 8 -1 2185 c0 1201 -4 2187 -8 2191 -4 3 -61 14 -127 23 -1177 174
-2141 543 -3110 1189 -145 97 -293 206 -319 235 -22 25 -93 31 -101 10z m224
-256 c415 -295 932 -588 1364 -773 523 -224 1143 -401 1677 -479 79 -12 165
-25 190 -31 l47 -10 7 -452 c4 -249 10 -463 13 -476 l6 -24 -89 7 c-379 30
-1000 144 -1394 257 -673 191 -1200 411 -1689 702 -112 67 -214 132 -227 144
l-24 22 0 591 c0 432 3 590 11 590 7 0 55 -31 108 -68z m126 -1394 c287 -169
650 -344 980 -473 554 -217 1301 -396 1990 -476 99 -11 183 -23 186 -27 4 -4
9 -206 12 -449 5 -413 4 -443 -12 -443 -158 0 -853 79 -1181 134 -535 90
-1262 300 -1740 503 -157 66 -409 190 -447 219 l-33 25 0 565 0 566 48 -28
c26 -16 115 -68 197 -116z m-64 -1227 c599 -288 1142 -463 1889 -610 444 -87
614 -111 1079 -156 146 -14 266 -27 269 -29 2 -2 6 -208 9 -457 l6 -452 -399
6 c-402 6 -604 19 -908 57 -869 111 -1562 282 -2068 510 l-48 21 0 594 c0 327
2 595 3 595 2 0 78 -35 168 -79z"/>
<path d="M1527 6088 c3 -106 7 -195 9 -196 1 -2 24 6 49 17 26 12 55 21 63 21
9 0 51 -17 94 -37 l78 -38 0 -47 c0 -54 15 -75 80 -108 23 -12 40 -28 40 -38
0 -9 5 -34 11 -56 l11 -38 86 3 87 4 35 -172 c20 -95 38 -174 41 -177 2 -3 45
16 94 40 49 25 96 43 105 40 8 -2 46 -18 85 -34 89 -37 169 -42 185 -12 14 27
50 26 110 -5 l50 -25 0 24 c0 16 7 26 21 29 24 6 144 -35 169 -58 9 -8 46 -28
83 -45 36 -16 71 -39 77 -49 5 -11 10 -51 10 -89 0 -64 2 -70 23 -74 12 -3 90
-26 172 -52 186 -59 404 -113 642 -162 l183 -36 87 49 c49 27 154 85 235 129
82 43 148 81 148 84 0 3 -72 18 -159 33 -1029 181 -2053 603 -2885 1189 -55
39 -105 72 -112 75 -11 4 -12 -34 -7 -189z"/>
<path d="M1658 5498 c1 -222 4 -408 7 -415 3 -10 118 -83 131 -83 2 0 4 146 4
324 l0 324 -32 5 c-88 16 -98 19 -98 38 0 25 17 24 73 -5 26 -12 48 -22 49
-20 2 1 2 40 0 86 l-3 84 -65 32 c-35 18 -65 32 -67 32 -1 0 -1 -181 1 -402z
m124 116 c12 -7 10 -24 -3 -24 -24 0 -109 44 -109 56 0 11 11 9 52 -7 29 -11
56 -23 60 -25z"/>
<path d="M1567 5873 l-37 -15 2 -355 3 -355 40 -23 40 -24 4 394 c2 223 0 395
-5 394 -5 0 -26 -7 -47 -16z"/>
<path d="M1832 5660 c0 -44 3 -51 23 -56 13 -3 32 -15 42 -26 18 -20 18 -21
-7 -13 -14 4 -31 10 -37 12 -10 4 -13 -61 -13 -303 l0 -309 48 -27 47 -26 -3
281 c-1 155 -6 322 -11 372 -8 85 -11 91 -42 117 -18 16 -36 28 -40 28 -4 0
-7 -23 -7 -50z m75 -146 c9 -20 8 -24 -5 -24 -20 1 -52 23 -52 37 0 21 46 10
57 -13z"/>
<path d="M2048 5543 c-10 -2 -18 -9 -18 -15 0 -27 93 -554 113 -638 l22 -95
50 -27 c28 -14 54 -27 59 -27 4 -1 5 16 1 37 -7 43 -124 579 -131 603 -3 11
-12 15 -28 12 -30 -6 -58 33 -35 48 23 14 35 10 47 -13 9 -19 10 -15 5 22 -11
81 -17 95 -44 97 -13 0 -32 -1 -41 -4z"/>
<path d="M1963 5343 c4 -108 7 -254 7 -324 l0 -129 73 -37 c39 -21 75 -39 78
-41 3 -1 -2 33 -11 76 -9 43 -39 207 -65 365 -45 263 -50 287 -68 287 -20 0
-20 -5 -14 -197z"/>
<path d="M2305 5238 c-44 -22 -81 -42 -83 -43 -2 -2 17 -98 42 -215 25 -116
46 -220 46 -231 0 -19 52 -59 78 -59 9 0 12 66 12 295 0 162 -3 295 -7 295 -5
-1 -44 -19 -88 -42z"/>
<path d="M2430 4991 c0 -148 3 -282 6 -298 5 -25 15 -34 58 -52 28 -11 55 -21
59 -21 4 0 7 130 7 288 0 216 -3 292 -12 304 -12 14 -87 48 -108 48 -6 0 -10
-100 -10 -269z m78 209 c35 -22 42 -40 15 -40 -23 0 -83 36 -83 50 0 16 32 12
68 -10z"/>
<path d="M2716 5251 c-9 -15 1 -692 10 -701 5 -5 33 -17 62 -28 l52 -20 0 343
c0 262 -3 345 -12 352 -37 28 -107 62 -112 54z m75 -252 c38 -27 37 -44 -1
-24 -16 8 -36 15 -45 15 -8 0 -15 7 -15 15 0 21 27 19 61 -6z m-7 -34 c33 -14
49 -35 26 -35 -16 0 -80 33 -80 42 0 12 13 10 54 -7z m16 -180 c31 -16 41 -45
15 -45 -25 0 -85 33 -85 47 0 18 34 16 70 -2z"/>
<path d="M2770 4770 c8 -5 20 -10 25 -10 6 0 3 5 -5 10 -8 5 -19 10 -25 10 -5
0 -3 -5 5 -10z"/>
<path d="M2870 4877 l0 -383 58 -18 c31 -10 63 -21 70 -23 9 -4 12 75 12 376
l0 382 -42 18 c-24 10 -55 21 -70 25 l-28 6 0 -383z m100 193 c29 -15 14 -40
-24 -40 -33 0 -56 15 -56 37 0 16 53 18 80 3z m-20 -470 c30 -16 40 -26 40
-45 0 -29 0 -29 -51 -13 -22 6 -39 17 -39 26 0 9 6 12 15 8 41 -17 46 -15 13
4 -36 19 -50 40 -28 40 6 0 29 -9 50 -20z"/>
<path d="M2642 5210 c-12 -5 -29 -7 -37 -4 -13 5 -15 -22 -15 -208 0 -118 3
-256 7 -307 6 -88 7 -93 34 -107 15 -7 33 -14 39 -14 7 0 10 105 10 325 0 179
-3 325 -7 324 -5 0 -18 -4 -31 -9z"/>
<path d="M3050 5115 c0 -61 1 -65 23 -65 26 0 97 -41 80 -47 -6 -2 -30 5 -53
17 -23 12 -43 20 -45 18 -1 -2 -4 -138 -6 -302 l-4 -299 50 -18 c28 -10 55
-18 60 -18 6 -1 10 125 10 359 0 226 -4 363 -10 369 -5 5 -31 19 -57 30 l-48
20 0 -64z m65 -112 c33 -16 41 -33 19 -40 -13 -4 -74 34 -74 47 0 14 14 12 55
-7z m-4 -510 c32 -19 33 -21 20 -42 -13 -20 -65 7 -69 37 -4 26 10 28 49 5z"/>
<path d="M3095 4470 c3 -5 11 -10 16 -10 6 0 7 5 4 10 -3 6 -11 10 -16 10 -6
0 -7 -4 -4 -10z"/>
<path d="M4690 4939 c-30 -17 -124 -67 -208 -111 -83 -44 -150 -84 -147 -88 3
-5 39 -14 79 -21 l74 -13 7 -58 7 -58 38 0 c21 0 46 -3 56 -7 11 -4 15 -3 10
5 -3 6 -28 14 -54 18 -43 6 -45 8 -24 17 16 8 36 7 63 0 l39 -10 0 48 0 49
-66 0 c-95 0 -70 16 38 23 106 8 148 -1 218 -44 26 -16 50 -29 54 -29 3 0 6
65 6 145 l0 144 -37 10 c-61 17 -94 13 -153 -20z"/>
<path d="M3198 4816 c0 -72 -2 -157 -4 -188 -1 -32 2 -58 6 -58 4 0 55 16 112
36 202 71 176 71 366 4 92 -33 176 -61 187 -62 23 -3 298 144 287 153 -4 3
-72 18 -152 33 -191 37 -448 102 -642 164 l-158 49 -2 -131z"/>
<path d="M4262 4710 c-17 -11 -105 -56 -194 -101 l-162 -82 62 -22 c86 -31 92
-38 92 -102 0 -54 -1 -55 -25 -51 -20 4 -25 1 -25 -14 0 -11 11 -22 25 -28 23
-9 25 -14 25 -75 0 -62 1 -65 28 -71 15 -3 34 -8 42 -10 12 -3 23 30 53 152
31 127 99 353 123 412 8 17 -6 15 -44 -8z"/>
<path d="M4660 4400 l0 -328 31 -7 c17 -4 32 -5 34 -3 2 2 5 147 6 322 l2 320
-36 12 -37 13 0 -329z"/>
<path d="M4320 4681 c0 -25 6 -34 28 -43 15 -7 34 -18 43 -25 15 -12 17 -10
23 14 4 15 9 35 12 44 3 12 -4 18 -25 22 -16 3 -40 9 -55 13 -24 6 -26 4 -26
-25z"/>
<path d="M4760 4376 c0 -340 -2 -326 54 -326 l23 0 7 235 c4 129 5 239 2 243
-3 5 -19 12 -36 15 -18 4 -30 13 -30 22 0 19 4 19 40 0 17 -9 30 -12 30 -7 0
5 -15 16 -32 25 l-33 16 32 0 c20 1 36 -6 43 -16 10 -15 11 -14 6 7 -3 14 -6
30 -6 37 0 11 -77 63 -93 63 -4 0 -7 -141 -7 -314z"/>
<path d="M4446 4664 c-3 -11 -14 -62 -25 -114 -12 -52 -42 -168 -67 -258 -26
-89 -44 -165 -40 -169 3 -4 43 -12 87 -18 l81 -12 -3 283 c-3 196 -8 287 -16
295 -8 8 -12 6 -17 -7z"/>
<path d="M3346 4590 c-76 -27 -141 -51 -143 -54 -3 -3 -7 -30 -10 -60 -3 -40
-1 -56 8 -56 23 0 214 53 227 63 6 5 12 16 12 24 0 10 -4 11 -19 3 -39 -20
-201 -59 -207 -49 -3 6 -4 12 -3 14 2 1 58 19 124 40 66 20 125 42 131 48 14
15 35 77 26 76 -4 0 -69 -22 -146 -49z"/>
<path d="M3509 4603 c-5 -14 -9 -33 -7 -41 2 -10 79 -38 227 -82 123 -38 242
-75 263 -84 l39 -15 -3 37 -3 37 -240 87 c-132 48 -246 88 -253 88 -7 0 -17
-12 -23 -27z"/>
<path d="M4292 4593 c-24 -60 -112 -408 -112 -442 0 -11 88 -27 96 -18 5 5 55
175 109 370 13 48 20 85 15 82 -5 -3 -27 3 -49 15 -22 11 -42 20 -44 20 -3 0
-9 -12 -15 -27z m-41 -403 c16 -9 28 -40 15 -40 -20 0 -66 25 -66 36 0 17 23
18 51 4z"/>
<path d="M4606 4578 c-14 -16 -27 -19 -57 -15 l-39 5 0 -172 0 -172 33 4 c22
2 41 -3 57 -16 21 -17 23 -22 10 -37 -10 -12 -26 -16 -57 -13 l-43 3 0 -36 c0
-33 3 -37 31 -43 17 -3 44 -6 60 -6 l29 0 0 260 c0 143 -1 260 -2 259 -2 0
-11 -10 -22 -21z"/>
<path d="M3465 4499 c-4 -11 -5 -23 -2 -25 9 -10 517 -151 522 -146 3 3 5 13
5 23 0 14 -19 24 -82 43 -293 89 -420 126 -428 126 -5 0 -12 -9 -15 -21z"/>
<path d="M3325 4423 c-49 -13 -94 -28 -98 -32 -6 -7 62 -32 154 -57 11 -3 20
5 27 23 16 42 25 93 15 92 -4 0 -48 -12 -98 -26z"/>
<path d="M3445 4399 c-4 -22 -5 -43 -2 -45 5 -5 566 -164 578 -164 11 0 19 74
10 83 -8 8 -554 167 -572 167 -4 0 -10 -18 -14 -41z"/>
<path d="M4865 4258 c-7 -135 -5 -208 8 -208 8 0 10 320 3 328 -2 2 -7 -52
-11 -120z"/>
<path d="M4510 4195 c0 -11 11 -15 43 -15 39 1 41 2 23 15 -26 20 -66 19 -66
0z"/>
<path d="M1520 4858 c0 -57 3 -119 6 -140 l6 -36 55 19 55 19 87 -43 c54 -28
90 -52 96 -66 6 -14 39 -37 80 -58 39 -19 77 -42 86 -49 9 -8 52 -33 95 -57
64 -34 80 -47 82 -68 3 -25 5 -25 57 -21 44 4 55 1 62 -14 5 -11 38 -151 74
-312 60 -276 65 -293 84 -287 67 20 92 15 358 -68 147 -46 270 -81 272 -77 2
4 22 56 44 115 22 60 46 113 53 120 7 6 83 37 169 68 l156 57 46 -17 c40 -15
52 -15 82 -4 40 14 138 7 170 -14 11 -6 41 -15 68 -19 l47 -7 0 -69 0 -68 113
-21 c61 -11 150 -27 197 -35 l85 -14 140 67 c77 37 169 80 205 96 85 37 92 45
42 45 -107 0 -581 81 -917 156 -787 176 -1494 453 -2129 833 -66 39 -121 71
-123 71 -2 0 -3 -46 -3 -102z"/>
<path d="M1648 4281 c-1 -226 -2 -421 -2 -433 -1 -18 13 -31 69 -60 39 -21 73
-38 78 -38 8 0 10 794 1 837 -5 24 -19 37 -75 67 l-69 37 -2 -410z m97 288
c28 -19 28 -20 5 -14 -14 4 -38 13 -55 20 -29 13 -29 13 -5 14 14 1 39 -8 55
-20z m-10 -23 c21 -8 41 -19 43 -25 6 -18 -40 -12 -75 9 -54 32 -38 40 32 16z
m7 -620 c13 -10 16 -22 11 -49 -6 -41 -10 -43 -57 -23 -27 11 -34 19 -32 41 1
26 2 27 51 11 11 -4 4 1 -15 11 -19 9 -37 18 -39 20 -1 1 0 6 3 12 7 11 50 -1
78 -23z"/>
<path d="M1556 4664 l-28 -16 3 -380 4 -380 27 -19 c14 -10 30 -19 35 -19 9 0
16 722 7 788 -6 47 -7 48 -48 26z"/>
<path d="M1830 4528 c0 -30 4 -35 53 -53 39 -15 53 -26 55 -42 4 -28 -8 -29
-58 -3 -22 11 -42 20 -45 20 -3 0 -5 -144 -3 -320 2 -281 4 -320 18 -320 20 0
80 -37 80 -50 0 -15 -31 -12 -64 5 -36 19 -36 19 -36 -8 0 -20 11 -29 63 -51
34 -14 66 -26 71 -26 10 0 0 768 -10 806 -4 17 -97 74 -119 74 -3 0 -5 -15 -5
-32z"/>
<path d="M1990 4392 c0 -146 12 -261 26 -255 20 7 104 -34 104 -51 0 -20 1
-20 -65 9 l-55 24 2 -230 3 -230 60 -24 c33 -14 62 -25 65 -25 3 0 6 173 7
384 2 435 11 389 -89 444 l-58 32 0 -78z m100 -232 c38 -19 53 -40 29 -40 -19
0 -109 42 -109 51 0 15 39 10 80 -11z"/>
<path d="M1880 4456 c0 -2 7 -9 15 -16 9 -7 15 -8 15 -2 0 5 -7 12 -15 16 -8
3 -15 4 -15 2z"/>
<path d="M2203 4329 c-30 -9 -32 -12 -27 -42 21 -122 165 -741 176 -754 5 -6
30 -18 55 -27 42 -14 44 -14 37 2 -4 9 -22 87 -40 172 -18 85 -49 230 -70 322
l-37 167 -26 -5 c-19 -4 -32 1 -45 15 -24 27 -11 44 30 39 19 -2 34 -2 34 2
-1 3 -7 30 -14 60 -13 59 -21 64 -73 49z"/>
<path d="M2253 4193 c9 -2 23 -2 30 0 6 3 -1 5 -18 5 -16 0 -22 -2 -12 -5z"/>
<path d="M2169 4125 c-3 -17 -3 -143 -1 -282 l4 -252 65 -26 c36 -14 67 -24
69 -22 2 2 -10 62 -27 133 -17 71 -48 208 -68 304 -26 117 -39 165 -42 145z"/>
<path d="M3490 3906 c-5 -13 -42 -104 -83 -202 -79 -191 -171 -434 -165 -438
1 -1 20 -7 40 -13 l37 -11 100 252 c55 138 111 280 124 316 13 36 27 72 31 81
5 13 -1 19 -25 28 -44 15 -48 14 -59 -13z m27 -101 c1 -5 -2 -17 -7 -25 -8
-13 -11 -13 -26 2 -9 9 -13 21 -9 28 8 13 37 10 42 -5z m-17 -56 c0 -4 -5 -11
-10 -14 -15 -9 -40 14 -40 36 0 18 1 19 25 3 14 -9 25 -20 25 -25z"/>
<path d="M3670 3553 l0 -380 31 -7 c76 -15 69 -50 69 374 0 365 -1 380 -19
380 -10 0 -33 3 -50 6 l-31 7 0 -380z m50 46 c0 -117 -3 -178 -10 -174 -6 4
-10 75 -10 181 0 109 4 174 10 174 6 0 10 -67 10 -181z m27 -82 c-1 -45 -3 -5
-3 88 0 94 2 130 3 82 2 -48 2 -125 0 -170z"/>
<path d="M3320 3866 l-135 -53 -43 -113 -43 -112 20 -20 c16 -14 21 -31 21
-73 0 -45 3 -55 20 -60 18 -6 20 -15 20 -81 0 -64 2 -74 18 -74 13 0 28 29 61
123 24 67 80 207 123 310 44 103 78 192 76 197 -2 4 -64 -16 -138 -44z"/>
<path d="M3602 3893 c-5 -10 -24 -58 -42 -108 -18 -49 -73 -191 -122 -314 -49
-124 -85 -228 -81 -231 7 -7 256 -61 276 -60 4 0 7 164 7 365 0 314 -2 365
-15 365 -8 0 -18 -8 -23 -17z"/>
<path d="M3798 3601 c-4 -463 -4 -444 10 -448 9 -4 12 56 13 274 1 174 5 259
9 228 5 -27 9 -155 9 -282 l1 -233 30 0 c27 0 29 2 20 25 -6 15 -9 171 -7 373
l2 347 -42 3 -43 3 -2 -290z"/>
<path d="M4575 3791 c-104 -48 -202 -93 -216 -100 -21 -10 -28 -23 -33 -58
-10 -74 -7 -133 7 -138 6 -2 71 -8 144 -13 82 -5 137 -13 147 -21 10 -9 16
-30 16 -56 0 -39 3 -44 30 -53 32 -12 44 -39 38 -88 -3 -25 -8 -29 -36 -32
-29 -3 -33 -6 -28 -25 3 -12 6 -25 6 -29 0 -5 18 -8 40 -8 l40 0 0 -64 0 -63
76 -7 c42 -4 78 -5 81 -3 2 3 0 193 -4 423 l-8 419 -55 2 c-50 2 -71 -5 -245
-86z"/>
<path d="M2441 3721 c-7 -5 -11 -13 -7 -19 8 -13 58 0 64 16 4 14 -36 16 -57
3z"/>
<path d="M2520 3712 c0 -11 3 -34 6 -51 7 -35 6 -34 374 -141 96 -28 183 -53
193 -56 14 -5 17 1 17 39 l0 45 -127 40 c-71 23 -198 62 -283 88 -85 26 -161
49 -167 51 -8 3 -13 -3 -13 -15z"/>
<path d="M3920 3661 c0 -37 -3 -90 -7 -116 l-6 -48 33 7 c18 3 46 12 61 20 22
11 39 11 100 1 41 -7 105 -16 142 -20 l68 -7 -3 83 -3 84 -180 32 c-99 17
-186 32 -192 32 -9 1 -13 -19 -13 -68z"/>
<path d="M2453 3683 c-15 -6 -17 -49 -3 -58 22 -14 50 6 50 36 0 29 -14 36
-47 22z"/>
<path d="M2457 3604 c-12 -12 19 -124 34 -124 5 0 9 29 9 65 0 56 -2 65 -18
65 -10 0 -22 -3 -25 -6z"/>
<path d="M2525 3592 c-11 -11 -5 -110 8 -119 6 -6 127 -44 267 -86 297 -88
340 -100 347 -94 2 3 7 30 10 60 l6 55 -64 20 c-35 11 -129 39 -209 61 -80 22
-193 56 -252 74 -59 19 -110 32 -113 29z"/>
<path d="M4050 3472 l0 -40 68 -7 c37 -4 155 -18 262 -31 251 -31 240 -31 240
6 0 18 -7 33 -17 38 -10 5 -74 15 -143 21 -153 14 -369 40 -392 47 -15 4 -18
-1 -18 -34z"/>
<path d="M3941 3475 c-27 -12 -32 -19 -27 -38 3 -12 6 -25 6 -28 0 -4 20 1 45
10 39 14 45 20 45 43 0 32 -16 35 -69 13z"/>
<path d="M3958 3392 c-31 -14 -38 -22 -38 -44 0 -31 6 -33 61 -16 35 10 39 14
39 45 0 37 -7 39 -62 15z"/>
<path d="M4050 3376 c0 -20 3 -36 6 -36 11 0 560 -71 592 -76 30 -6 32 -5 32
24 0 17 -4 33 -8 36 -4 2 -131 21 -282 41 -151 19 -290 38 -307 41 -32 6 -33
5 -33 -30z"/>
<path d="M3948 3297 c-23 -9 -28 -17 -28 -45 l0 -34 43 7 c56 10 57 11 57 51
0 29 -3 34 -22 33 -13 -1 -35 -6 -50 -12z"/>
<path d="M4050 3270 c0 -22 3 -40 8 -40 4 0 114 -11 246 -25 131 -14 256 -25
277 -25 37 0 39 2 39 30 0 23 -5 31 -22 34 -25 5 -528 67 -540 66 -5 0 -8 -18
-8 -40z"/>
<path d="M3974 3201 c-17 -4 -35 -11 -41 -14 -14 -9 -4 -57 12 -57 7 0 27 -3
44 -6 l31 -6 0 46 c0 25 -3 46 -7 45 -5 -1 -22 -4 -39 -8z"/>
<path d="M4050 3156 l0 -43 103 -12 c193 -22 482 -51 520 -51 35 0 37 2 37 33
0 17 -4 37 -8 44 -4 7 -59 16 -132 23 -69 6 -208 20 -310 31 -102 10 -191 19
-197 19 -9 0 -13 -15 -13 -44z"/>
<path d="M1530 3523 c0 -90 2 -163 4 -163 2 0 24 9 49 19 57 25 111 15 147
-27 14 -16 52 -44 85 -62 33 -18 66 -40 73 -48 9 -12 12 -69 12 -209 0 -122 4
-193 10 -193 5 0 77 27 158 60 l148 60 264 -99 c214 -80 266 -96 275 -85 5 7
73 42 150 77 213 97 192 91 297 78 51 -7 96 -17 100 -24 4 -7 8 -27 8 -44 0
-18 2 -33 3 -33 2 0 64 -11 138 -25 74 -14 185 -30 248 -35 63 -6 120 -15 128
-21 10 -9 13 -85 13 -376 0 -282 3 -365 13 -368 10 -4 219 -23 224 -21 0 1
-21 70 -47 153 -27 84 -72 242 -101 350 -29 109 -56 200 -61 201 -20 8 -4 22
43 37 56 19 100 17 299 -15 l114 -19 116 48 c229 96 254 111 188 111 -119 0
-634 72 -970 135 -795 150 -1396 339 -1954 614 l-174 86 0 -162z"/>
<path d="M1568 3348 l-28 -10 0 -394 0 -393 30 -16 c16 -8 31 -15 35 -15 3 0
5 189 5 420 0 231 -3 420 -7 419 -5 0 -20 -5 -35 -11z"/>
<path d="M1650 2935 c0 -409 1 -425 19 -435 11 -5 22 -10 25 -10 3 0 6 193 6
429 0 451 1 441 -41 441 -5 0 -9 -173 -9 -425z"/>
<path d="M1730 2952 l0 -338 33 -16 c17 -8 47 -19 65 -22 29 -7 32 -6 32 17 0
22 -5 25 -55 32 -30 3 -55 11 -55 16 0 5 23 6 55 3 l55 -7 0 291 0 291 -59 35
c-32 20 -61 36 -65 36 -3 0 -6 -152 -6 -338z m113 -292 c5 -4 -13 -5 -40 -3
-26 3 -52 10 -58 15 -7 7 7 8 40 3 28 -3 54 -10 58 -15z"/>
<path d="M2038 2862 l-138 -57 0 -37 c0 -21 2 -38 5 -38 16 0 295 140 295 148
0 6 3 17 6 26 10 27 -22 18 -168 -42z"/>
<path d="M2233 2904 c-3 -8 -1 -20 4 -25 14 -14 555 -211 561 -204 13 12 -17
41 -59 57 -24 9 -145 55 -268 102 -123 47 -226 86 -228 86 -2 0 -6 -7 -10 -16z"/>
<path d="M3117 2814 c-7 -100 -10 -714 -4 -714 1 0 39 -6 85 -14 99 -16 97
-18 88 87 -3 40 -6 217 -7 395 -1 367 8 335 -95 347 l-61 7 -6 -108z m117 46
c18 -7 26 -17 26 -34 0 -23 -3 -24 -42 -19 -24 3 -54 10 -67 15 -23 8 -23 9
-6 28 20 22 50 25 89 10z m-16 -611 c25 -9 53 -39 36 -39 -21 0 -103 34 -98
41 7 12 24 11 62 -2z m-15 -35 c35 -12 47 -21 47 -36 0 -18 -5 -20 -40 -15
-50 6 -70 21 -63 47 3 11 6 20 7 20 2 0 23 -7 49 -16z"/>
<path d="M3166 2851 c10 -10 80 -24 72 -15 -4 3 -23 10 -43 14 -21 5 -34 5
-29 1z"/>
<path d="M3190 2186 c28 -17 50 -21 35 -7 -6 5 -21 12 -35 15 l-25 7 25 -15z"/>
<path d="M3035 2884 c-16 -8 -84 -39 -149 -69 l-119 -56 31 -29 c22 -19 32
-38 32 -57 0 -16 9 -36 20 -46 19 -16 21 -27 24 -113 1 -12 16 -35 34 -52 29
-27 32 -35 32 -90 0 -57 2 -62 29 -78 34 -20 41 -38 41 -115 0 -58 9 -68 58
-69 9 0 12 86 12 395 0 217 -3 395 -7 394 -5 0 -21 -7 -38 -15z"/>
<path d="M2100 2789 c-69 -32 -142 -64 -162 -71 -21 -6 -38 -18 -38 -25 0 -18
10 -15 193 63 81 35 152 64 157 64 16 0 12 17 -6 24 -19 7 3 16 -144 -55z"/>
<path d="M4630 2798 c-47 -22 -130 -60 -185 -83 -89 -38 -100 -46 -103 -70 -3
-26 -2 -27 25 -21 15 4 42 14 58 22 42 19 177 37 185 24 3 -5 42 -10 86 -10
108 1 136 -8 148 -48 6 -20 15 -32 27 -32 14 0 18 13 24 83 4 45 5 100 2 122
-4 40 -5 40 -53 47 -96 13 -126 8 -214 -34z"/>
<path d="M2292 2786 c-7 -18 -21 -42 -32 -54 -20 -21 -20 -23 -3 -28 10 -4 81
-31 158 -61 118 -46 419 -153 431 -153 2 0 4 24 4 54 0 46 -4 58 -24 74 -22
16 -130 59 -427 166 l-96 34 -11 -32z"/>
<path d="M2190 2778 l-65 -31 45 -13 c50 -15 61 -10 93 45 23 39 13 39 -73 -1z"/>
<path d="M3310 2442 l0 -370 23 -6 c13 -3 49 -8 80 -12 l57 -7 0 365 0 365
-62 12 c-35 7 -71 14 -80 17 -17 5 -18 -17 -18 -364z m99 255 c28 -10 35 -18
37 -46 4 -33 4 -33 -32 -26 -46 8 -84 26 -84 38 0 9 25 6 78 -9 12 -4 22 -2
22 4 0 6 -15 13 -32 17 -55 11 -68 16 -68 26 0 12 38 10 79 -4z m0 -558 c24
-8 31 -17 31 -36 0 -25 -2 -25 -46 -19 -52 7 -67 13 -59 26 3 5 27 7 53 5 l47
-5 -42 13 c-23 6 -45 15 -49 20 -11 11 29 9 65 -4z"/>
<path d="M3505 2758 c-3 -7 -4 -170 -3 -362 l3 -350 28 -7 c15 -4 47 -9 70
-11 l42 -3 3 362 2 361 -52 7 c-29 3 -61 9 -71 11 -9 3 -19 -1 -22 -8z m118
-117 c6 -6 9 -13 6 -15 -6 -7 -85 17 -96 28 -12 13 77 0 90 -13z m-30 -22 c44
-12 54 -44 10 -33 -67 17 -77 21 -81 32 -5 15 21 15 71 1z m15 -490 c12 -5 22
-15 22 -23 0 -11 -11 -10 -55 7 -30 11 -55 24 -55 29 0 10 45 3 88 -13z m-37
-31 c41 -12 52 -28 20 -28 -29 0 -71 18 -71 30 0 13 4 13 51 -2z"/>
<path d="M3680 2392 l0 -369 38 -7 c20 -3 49 -6 65 -6 l27 0 0 365 0 364 -37
6 c-21 4 -50 9 -65 11 l-28 6 0 -370z m88 312 c22 -6 31 -37 14 -48 -5 -3 -25
-1 -45 5 -27 7 -37 15 -37 29 0 21 23 26 68 14z"/>
<path d="M3724 2691 c3 -5 16 -11 28 -14 22 -6 22 -5 4 8 -22 17 -40 20 -32 6z"/>
<path d="M2100 2666 c0 -55 3 -66 23 -79 12 -8 20 -17 17 -19 -3 -3 -57 -26
-120 -52 -119 -49 -148 -66 -116 -66 21 0 191 66 222 86 18 12 31 11 95 -5 41
-11 119 -35 174 -55 110 -40 486 -156 504 -156 8 0 11 19 9 58 l-3 57 -185 67
c-375 135 -496 179 -551 203 -31 14 -59 25 -63 25 -3 0 -6 -29 -6 -64z m328
-97 c73 -30 101 -49 72 -49 -14 0 -314 111 -324 120 -4 5 -5 13 -2 18 6 10 52
-6 254 -89z m-178 16 c76 -24 283 -105 294 -116 27 -25 -19 -15 -185 42 -101
34 -188 65 -193 69 -11 11 1 30 17 25 7 -2 37 -11 67 -20z"/>
<path d="M1979 2679 l-76 -29 -7 -47 c-8 -61 -8 -103 2 -103 4 0 46 16 95 36
83 35 87 38 87 68 0 43 -11 106 -19 106 -3 -1 -40 -14 -82 -31z"/>
<path d="M3933 2700 c-13 -5 -23 -14 -23 -20 0 -19 110 -409 155 -549 l45
-139 40 20 c29 14 39 25 36 37 -3 9 -43 149 -90 311 -46 162 -89 307 -95 323
-11 28 -29 33 -68 17z"/>
<path d="M4037 2658 l15 -53 134 0 c127 0 134 1 134 20 0 31 -12 41 -55 49
-272 47 -246 48 -228 -16z"/>
<path d="M4467 2643 c-4 -3 -7 -17 -7 -30 0 -20 5 -23 39 -23 45 0 71 -8 71
-21 0 -5 -24 -6 -55 -3 -35 4 -55 3 -55 -3 0 -6 27 -13 60 -17 33 -4 60 -10
60 -14 0 -16 -25 -32 -51 -32 -62 0 -59 12 -59 -271 l0 -258 34 -6 c18 -4 44
-5 57 -3 l24 3 3 343 2 342 -58 0 c-32 0 -62 -3 -65 -7z"/>
<path d="M4715 2642 c-3 -3 -5 -13 -5 -23 0 -14 11 -18 55 -21 47 -3 55 0 55
15 0 9 -3 17 -7 17 -5 1 -27 5 -50 9 -23 5 -45 6 -48 3z"/>
<path d="M4620 2300 l0 -340 25 0 25 0 0 295 c0 229 -3 295 -12 295 -8 1 -6 6
5 14 9 7 17 16 17 20 0 3 -8 6 -17 6 -17 1 -17 1 0 11 28 16 21 39 -13 39
l-30 0 0 -340z"/>
<path d="M4380 2611 c-16 -4 -26 -15 -28 -30 -3 -22 -1 -23 28 -17 18 3 36 6
41 6 5 0 9 11 9 25 0 26 -7 28 -50 16z"/>
<path d="M4092 2583 c-27 -5 -27 -2 34 -203 24 -80 52 -176 63 -215 l20 -70 0
135 c1 74 -2 186 -6 248 l-6 112 -41 -1 c-23 -1 -51 -4 -64 -6z"/>
<path d="M4230 2568 c0 -57 10 -68 57 -68 39 0 44 2 33 14 -6 8 -26 17 -43 19
-31 4 -30 4 6 5 29 2 37 6 37 21 0 19 -25 31 -67 31 -17 0 -23 -6 -23 -22z"/>
<path d="M4725 2580 c29 -12 98 -12 90 0 -3 6 -30 10 -58 9 -38 0 -47 -3 -32
-9z"/>
<path d="M1730 2526 c0 -57 2 -59 91 -91 37 -13 37 -13 43 16 10 50 -3 89 -33
95 -14 3 -43 11 -63 19 l-38 13 0 -52z"/>
<path d="M4383 2550 c-13 -5 -23 -16 -23 -24 0 -13 5 -13 35 -3 35 12 47 30
23 34 -7 1 -23 -2 -35 -7z"/>
<path d="M4712 2263 l3 -298 53 -3 52 -3 0 300 0 301 -55 0 -55 0 2 -297z"/>
<path d="M4852 2263 c3 -274 5 -298 21 -301 16 -3 17 17 17 297 0 295 0 301
-20 301 -20 0 -20 -5 -18 -297z"/>
<path d="M2168 2457 c-3 -34 -3 -69 -1 -78 3 -10 30 -21 76 -32 40 -10 185
-54 322 -99 285 -92 372 -118 397 -118 15 0 18 9 18 58 0 31 -4 62 -8 68 -4 7
-106 42 -227 79 -121 37 -238 73 -260 80 l-40 13 3 -59 c2 -36 0 -59 -7 -59
-5 0 -11 27 -13 61 l-3 61 -60 24 c-33 14 -90 33 -126 44 l-67 18 -4 -61z
m197 -67 c0 -31 -5 -55 -11 -57 -14 -5 -22 44 -16 87 7 50 27 28 27 -30z"/>
<path d="M4460 2511 c0 -8 79 -3 89 5 2 2 -17 4 -42 4 -26 0 -47 -4 -47 -9z"/>
<path d="M2030 2463 c-58 -23 -114 -44 -125 -48 -20 -7 -9 -11 220 -85 107
-35 476 -133 481 -127 6 6 -409 130 -454 135 -40 4 -71 22 -38 22 10 0 17 16
21 53 13 99 15 98 -105 50z"/>
<path d="M4383 2503 c-13 -2 -23 -10 -23 -18 0 -10 8 -11 40 -3 65 17 50 34
-17 21z"/>
<path d="M4238 2231 l-3 -261 48 0 47 0 0 255 0 255 -22 0 c-13 0 -33 3 -45 6
l-22 6 -3 -261z"/>
<path d="M4388 2468 l-28 -10 0 -244 0 -244 40 0 40 0 0 255 c0 274 2 263 -52
243z"/>
<path d="M4154 1985 c-18 -13 -17 -14 19 -15 26 0 37 4 37 15 0 19 -30 19 -56
0z"/>
<path d="M795 5798 c-115 -491 -154 -820 -162 -1355 -6 -394 2 -571 38 -853
19 -149 54 -330 43 -220 -30 292 -40 703 -25 986 14 266 42 507 91 799 37 220
39 242 42 493 2 144 2 262 1 262 -1 0 -13 -51 -28 -112z"/>
<path d="M786 5102 c-93 -547 -110 -1287 -40 -1812 128 -973 657 -1932 1369
-2483 389 -301 812 -492 1256 -567 139 -24 585 -38 694 -23 54 8 44 10 -100
16 -288 12 -505 49 -720 122 -473 160 -894 441 -1246 831 -301 334 -482 600
-669 988 -303 625 -459 1188 -522 1876 -15 172 -15 787 1 1024 6 98 10 180 8
182 -2 2 -16 -67 -31 -154z"/>
<path d="M1530 2231 l0 -121 58 26 c101 46 115 48 217 37 52 -7 99 -14 105
-18 6 -4 10 -85 10 -221 0 -139 4 -214 10 -214 6 0 47 19 93 41 l82 42 90 -11
c75 -9 94 -15 111 -35 l21 -24 48 19 c26 10 54 17 60 14 7 -2 22 -25 35 -50
12 -25 23 -46 25 -46 2 0 74 31 160 68 l156 68 102 -21 102 -20 5 -65 c4 -51
8 -64 20 -62 8 2 78 28 155 59 l140 55 90 -6 c49 -4 91 -9 94 -12 3 -2 7 -23
10 -47 6 -41 7 -42 49 -48 24 -3 48 -12 53 -20 5 -8 9 -85 9 -172 l0 -159 31
7 c31 7 652 -12 716 -21 l33 -5 0 -79 c0 -64 -3 -80 -15 -80 -11 0 -15 -12
-15 -49 l0 -49 55 -4 55 -3 1 60 c2 74 -3 549 -5 552 -1 1 -76 -17 -166 -40
l-165 -42 -3 -113 c-2 -92 -5 -112 -18 -112 -12 0 -14 19 -12 118 l3 117 73
24 72 24 0 107 0 107 -122 7 c-497 28 -985 91 -1413 183 -539 115 -899 220
-1202 350 -10 4 -13 -23 -13 -116z"/>
<path d="M1720 1872 l0 -290 86 -111 c48 -62 87 -110 88 -109 1 2 0 152 -2
335 l-4 331 -74 7 c-73 7 -100 19 -70 31 15 6 92 -7 129 -21 15 -6 17 0 17 49
0 52 -2 56 -24 56 -12 0 -51 3 -85 6 l-61 7 0 -291z m143 112 c19 -7 23 -34 6
-34 -7 0 -28 4 -48 10 -20 5 -48 12 -63 15 -16 3 -28 10 -28 17 0 11 98 6 133
-8z m2 -200 c31 -12 15 -26 -22 -20 -79 14 -93 18 -93 28 0 10 82 4 115 -8z
m-31 -50 c35 -5 46 -11 46 -24 0 -15 -7 -17 -47 -13 -75 7 -93 12 -93 28 0 17
22 19 94 9z"/>
<path d="M1610 2120 l-65 -28 -3 -46 c-2 -25 -1 -46 2 -46 3 0 29 11 58 24 29
14 61 27 71 30 12 4 17 16 17 45 0 22 -3 42 -7 44 -5 2 -37 -8 -73 -23z"/>
<path d="M1615 2004 c-33 -18 -64 -35 -69 -37 -10 -3 -17 -57 -8 -57 4 0 36
15 72 34 54 28 66 39 71 65 4 17 4 30 0 30 -3 -1 -33 -16 -66 -35z"/>
<path d="M1613 1913 c-40 -18 -73 -39 -73 -46 0 -6 27 -57 61 -112 67 -112 87
-141 92 -134 2 2 1 76 -2 165 l-6 160 -72 -33z"/>
<path d="M4300 1707 c0 -71 4 -107 11 -107 6 0 88 20 183 45 167 43 286 58
286 35 0 -5 18 -10 39 -10 22 0 51 -4 65 -10 l26 -10 0 75 0 75 -192 0 c-106
0 -244 3 -305 7 l-113 6 0 -106z"/>
<path d="M2130 1773 c0 -5 -1 -156 -2 -338 l-1 -330 66 -67 c36 -38 71 -68 79
-68 11 0 13 58 10 325 l-3 326 -22 8 c-12 5 -43 11 -69 15 -33 5 -48 12 -48
22 0 15 30 14 108 -6 39 -10 45 -2 40 56 -3 35 -6 39 -38 45 -77 15 -120 19
-120 12z m115 -59 c9 -9 13 -20 8 -25 -12 -12 -103 12 -103 28 0 19 75 17 95
-3z"/>
<path d="M2218 1703 c7 -3 16 -2 19 1 4 3 -2 6 -13 5 -11 0 -14 -3 -6 -6z"/>
<path d="M2840 1777 c-4 -57 -3 -868 2 -872 3 -4 40 -10 82 -14 l76 -7 -2 431
-3 430 -45 11 c-58 14 -110 24 -110 21z m120 -56 c14 -4 25 -13 25 -21 0 -12
-11 -14 -45 -11 -53 4 -90 17 -90 31 0 11 71 12 110 1z m15 -67 c8 -4 15 -11
15 -16 0 -7 -18 -8 -50 -4 -61 8 -80 15 -80 28 0 10 83 4 115 -8z m2 -475 c20
-17 -3 -29 -36 -19 -14 5 -38 11 -53 14 -16 4 -28 11 -28 18 0 14 96 3 117
-13z m-4 -56 c4 -2 7 -9 7 -15 0 -7 -17 -8 -52 -4 -59 8 -71 13 -62 28 6 9 88
3 107 -9z m-15 -44 c37 -14 27 -32 -14 -24 -52 9 -84 23 -84 35 0 11 54 5 98
-11z"/>
<path d="M2652 1708 c-110 -47 -142 -65 -139 -77 20 -66 247 -596 264 -618
l22 -28 0 393 c1 215 0 392 -1 392 -2 -1 -67 -28 -146 -62z"/>
<path d="M1993 1722 l-73 -36 0 -182 0 -182 61 -68 c34 -38 72 -80 85 -94 l24
-25 0 313 c0 243 -3 312 -12 311 -7 0 -46 -17 -85 -37z"/>
<path d="M2365 1717 c-32 -18 -39 -28 -37 -48 3 -32 280 -720 296 -736 4 -5
93 36 114 53 14 10 -304 754 -322 754 -6 0 -29 -11 -51 -23z m315 -646 c0 -12
-63 -51 -81 -51 -8 1 2 14 21 30 34 30 60 39 60 21z m10 -31 c0 -10 -58 -50
-72 -50 -17 0 -6 16 25 37 36 25 47 28 47 13z"/>
<path d="M3362 1293 l3 -438 68 -3 67 -3 0 434 0 434 -52 7 c-29 3 -61 6 -71
6 -16 0 -17 -25 -15 -437z m100 315 c23 -18 27 -51 6 -56 -22 -4 -91 25 -84
37 3 5 21 6 41 1 20 -5 33 -4 29 1 -3 5 -13 9 -22 9 -9 0 -24 5 -32 10 -11 7
-8 10 16 10 16 0 37 -6 46 -12z"/>
<path d="M3180 1661 l-145 -56 -3 -361 -2 -361 145 -13 c80 -7 148 -10 150 -8
3 3 4 196 3 431 l-3 425 -145 -57z"/>
<path d="M4670 1250 l0 -420 40 0 40 0 0 420 0 420 -40 0 -40 0 0 -420z m52
181 c5 -83 -3 -371 -11 -371 -12 0 -21 119 -21 278 0 115 3 142 14 142 10 0
15 -15 18 -49z"/>
<path d="M4568 1638 c-28 -10 -28 -10 -28 -103 l0 -93 30 11 c25 10 33 9 40
-3 15 -23 6 -35 -31 -40 l-34 -5 -3 -175 c-2 -96 0 -226 3 -288 l7 -113 42 3
41 3 3 408 2 407 -22 -1 c-13 0 -35 -5 -50 -11z"/>
<path d="M4776 1604 c-3 -26 -6 -211 -6 -412 l0 -365 46 7 c26 3 55 6 65 6 18
0 19 17 19 399 l0 399 -31 6 c-17 3 -44 6 -59 6 -25 0 -28 -4 -34 -46z m104
-89 c14 -17 8 -18 -39 -9 -17 4 -28 10 -25 15 8 14 50 10 64 -6z m8 -42 c2 -8
-6 -13 -21 -13 -32 0 -57 9 -57 22 0 14 73 5 78 -9z"/>
<path d="M3530 1596 c0 -18 4 -24 15 -20 8 3 29 1 46 -5 29 -10 30 -10 27 17
-3 24 -8 27 -45 30 -40 3 -43 1 -43 -22z"/>
<path d="M2313 1298 c1 -174 5 -319 8 -323 4 -3 51 -13 105 -21 55 -7 109 -16
122 -19 36 -9 50 -48 -182 540 l-56 140 3 -317z"/>
<path d="M3532 1548 c3 -7 21 -14 41 -16 46 -4 39 -22 -9 -22 l-34 0 2 -332 3
-333 43 -3 42 -3 -2 353 -3 353 -29 2 c-16 1 -36 5 -43 8 -9 3 -13 0 -11 -7z"/>
<path d="M3680 1271 c-23 -6 -25 -12 -28 -69 -3 -67 1 -72 52 -52 24 9 26 14
26 70 0 63 -1 65 -50 51z"/>
<path d="M3757 1274 c-4 -4 -7 -31 -7 -60 0 -42 4 -54 18 -58 9 -2 100 -7 202
-10 102 -4 238 -9 303 -12 l117 -6 0 61 c0 60 -1 61 -27 61 -55 0 -460 20
-528 25 -39 4 -74 3 -78 -1z"/>
<path d="M3680 1121 c-22 -6 -25 -13 -28 -59 -3 -56 3 -61 50 -43 21 8 23 14
20 60 -2 28 -7 51 -10 50 -4 -1 -18 -4 -32 -8z"/>
<path d="M3750 1078 l0 -45 218 -7 c119 -3 256 -9 305 -13 l87 -6 0 52 0 51
-87 0 c-49 0 -186 3 -305 7 l-218 6 0 -45z m460 -5 c19 -17 -47 -22 -210 -17
-197 6 -230 9 -230 24 0 8 430 2 440 -7z"/>
<path d="M3677 993 l-28 -4 3 -77 3 -77 33 -3 32 -3 0 85 c0 47 -3 85 -7 85
-5 -1 -21 -4 -36 -6z"/>
<path d="M3750 942 c0 -34 1 -63 3 -63 1 -1 165 -5 364 -8 l361 -6 6 35 c3 19
3 44 0 56 -6 24 -43 26 -511 41 l-223 6 0 -61z"/>
<path d="M2728 944 c-27 -13 -48 -27 -48 -29 0 -3 27 -5 60 -5 l60 0 0 30 c0
36 -10 37 -72 4z"/>
<path d="M4505 858 l-7 -21 -379 6 c-224 3 -379 1 -379 -4 0 -5 165 -9 394 -9
l393 0 -5 25 c-5 31 -9 31 -17 3z"/>
<path d="M6894 3601 c-55 -25 -109 -91 -135 -165 -30 -86 -38 -303 -15 -408
30 -133 92 -234 170 -276 19 -10 56 -16 97 -17 86 0 148 36 191 111 79 141 78
441 -2 609 -67 140 -190 199 -306 146z"/>
<path d="M9724 586 c-8 -21 3 -36 27 -36 15 0 20 6 17 22 -4 27 -35 37 -44 14z"/>
<path d="M9602 534 c-31 -21 -18 -36 26 -29 l37 5 -35 -11 c-39 -12 -50 -24
-50 -56 0 -30 31 -45 80 -37 l40 7 0 59 c0 54 -2 59 -26 68 -35 14 -46 13 -72
-6z m58 -84 c0 -5 -9 -10 -20 -10 -11 0 -20 5 -20 10 0 6 9 10 20 10 11 0 20
-4 20 -10z"/>
<path d="M9730 475 c0 -58 2 -65 20 -65 18 0 20 7 20 65 0 58 -2 65 -20 65
-18 0 -20 -7 -20 -65z"/>
<path d="M8100 1538 c-83 -24 -141 -99 -165 -214 -24 -115 -47 -104 206 -104
l222 0 -6 76 c-10 112 -52 195 -117 229 -37 19 -100 25 -140 13z"/>
</g>
</svg>
